<?xml version="1.0" standalone="no"?>
<!DOCTYPE svg PUBLIC "-//W3C//DTD SVG 20010904//EN"
 "http://www.w3.org/TR/2001/REC-SVG-20010904/DTD/svg10.dtd">
<svg version="1.0" xmlns="http://www.w3.org/2000/svg"
 width="407.000000pt" height="378.000000pt" viewBox="0 0 407.000000 378.000000"
 preserveAspectRatio="xMidYMid meet">
<metadata>
Created by potrace 1.16, written by Peter Selinger 2001-2019
</metadata>
<g transform="translate(0.000000,378.000000) scale(0.100000,-0.100000)"
fill="#000000" stroke="none">
<path d="M2755 3139 c-313 -59 -573 -108 -577 -109 -5 0 -8 -31 -8 -70 l0 -70
590 0 590 0 0 180 c0 138 -3 180 -12 179 -7 -1 -269 -50 -583 -110z"/>
<path d="M2220 2595 l0 -275 -510 0 -510 0 0 -175 0 -175 1030 0 1030 0 0 450
0 450 -520 0 -520 0 0 -275z m401 129 c39 -19 86 -78 98 -121 6 -21 11 -120
11 -220 l0 -183 -40 0 -40 0 0 61 c0 77 -21 122 -67 144 -46 22 -92 13 -129
-26 -25 -27 -29 -38 -32 -104 l-4 -75 -39 0 -39 0 0 183 c0 100 5 199 11 220
11 40 58 100 93 119 53 29 123 29 177 2z m349 -249 l0 -275 -80 0 -80 0 0 275
0 275 80 0 80 0 0 -275z m210 0 l0 -275 -80 0 -80 0 0 275 0 275 80 0 80 0 0
-275z"/>
<path d="M2475 2575 c-31 -30 -33 -82 -4 -119 16 -21 29 -26 64 -26 35 0 48 5
64 26 47 60 10 144 -64 144 -25 0 -44 -8 -60 -25z"/>
<path d="M1380 2745 c0 -38 3 -45 20 -45 19 0 20 -7 20 -175 l0 -175 95 0 95
0 0 175 c0 168 1 175 20 175 17 0 20 7 20 45 l0 45 -135 0 -135 0 0 -45z"/>
<path d="M1200 1925 l0 -25 1030 0 1030 0 0 25 0 25 -1030 0 -1030 0 0 -25z"/>
<path d="M1200 1680 l0 -210 1030 0 1030 0 0 210 0 210 -1030 0 -1030 0 0
-210z"/>
<path d="M916 1403 c-3 -10 -32 -113 -66 -230 -60 -210 -60 -213 -60 -342 l0
-131 110 0 110 0 0 68 c0 115 30 176 94 188 26 4 37 16 60 60 36 68 101 127
186 168 59 28 74 31 165 31 91 0 106 -3 166 -31 83 -39 139 -89 186 -165 l36
-59 223 0 224 0 20 40 c26 52 82 114 135 150 114 79 273 91 400 31 76 -35 160
-115 189 -179 l19 -42 119 0 118 0 0 230 0 230 -1214 0 c-1148 0 -1215 -1
-1220 -17z"/>
<path d="M1414 1126 c-91 -29 -170 -105 -205 -197 -24 -63 -25 -168 -2 -233
24 -67 100 -148 171 -183 80 -39 191 -40 273 -1 222 103 260 400 71 555 -83
67 -205 91 -308 59z"/>
<path d="M2623 1122 c-226 -81 -293 -372 -123 -542 65 -65 138 -94 235 -94 98
0 171 31 233 98 60 65 84 120 90 202 9 139 -50 248 -167 312 -54 30 -76 36
-140 39 -56 3 -90 -1 -128 -15z"/>
<path d="M1910 875 l0 -35 220 0 220 0 0 35 0 35 -220 0 -220 0 0 -35z"/>
<path d="M1910 765 l0 -35 220 0 220 0 0 35 0 35 -220 0 -220 0 0 -35z"/>
</g>
</svg>
